<svg width="339" height="100" viewBox="0 0 339 100" fill="none" xmlns="http://www.w3.org/2000/svg">
<rect x="0.5" y="14.5" width="324" height="85" fill="white" stroke="black"/>
<path d="M71.4148 55.2216H68.7557C68.6534 54.6534 68.4631 54.1534 68.1847 53.7216C67.9063 53.2898 67.5653 52.9233 67.1619 52.6222C66.7585 52.321 66.3068 52.0937 65.8068 51.9403C65.3125 51.7869 64.7869 51.7102 64.2301 51.7102C63.2244 51.7102 62.3239 51.9631 61.5284 52.4688C60.7386 52.9744 60.1136 53.7159 59.6534 54.6932C59.1989 55.6705 58.9716 56.8636 58.9716 58.2727C58.9716 59.6932 59.1989 60.892 59.6534 61.8693C60.1136 62.8466 60.7415 63.5852 61.5369 64.0852C62.3324 64.5852 63.2273 64.8352 64.2216 64.8352C64.7727 64.8352 65.2955 64.7614 65.7898 64.6136C66.2898 64.4602 66.7415 64.2358 67.1449 63.9403C67.5483 63.6449 67.8892 63.2841 68.1676 62.858C68.4517 62.4261 68.6477 61.9318 68.7557 61.375L71.4148 61.3835C71.2727 62.2415 70.9972 63.0312 70.5881 63.7528C70.1847 64.4688 69.6648 65.0881 69.0284 65.6108C68.3977 66.1278 67.6761 66.5284 66.8636 66.8125C66.0511 67.0966 65.1648 67.2386 64.2045 67.2386C62.6932 67.2386 61.3466 66.8807 60.1648 66.1648C58.983 65.4432 58.0511 64.4119 57.3693 63.071C56.6932 61.7301 56.3551 60.1307 56.3551 58.2727C56.3551 56.4091 56.696 54.8097 57.3778 53.4744C58.0597 52.1335 58.9915 51.1051 60.1733 50.3892C61.3551 49.6676 62.6989 49.3068 64.2045 49.3068C65.1307 49.3068 65.9943 49.4403 66.7955 49.7074C67.6023 49.9687 68.3267 50.3551 68.9688 50.8665C69.6108 51.3722 70.142 51.9915 70.5625 52.7244C70.983 53.4517 71.267 54.2841 71.4148 55.2216ZM79.8757 67.2642C78.6484 67.2642 77.5774 66.983 76.6626 66.4205C75.7479 65.858 75.0376 65.071 74.532 64.0597C74.0263 63.0483 73.7734 61.8665 73.7734 60.5142C73.7734 59.1562 74.0263 57.9687 74.532 56.9517C75.0376 55.9347 75.7479 55.1449 76.6626 54.5824C77.5774 54.0199 78.6484 53.7386 79.8757 53.7386C81.103 53.7386 82.174 54.0199 83.0888 54.5824C84.0036 55.1449 84.7138 55.9347 85.2195 56.9517C85.7251 57.9687 85.978 59.1562 85.978 60.5142C85.978 61.8665 85.7251 63.0483 85.2195 64.0597C84.7138 65.071 84.0036 65.858 83.0888 66.4205C82.174 66.983 81.103 67.2642 79.8757 67.2642ZM79.8842 65.125C80.6797 65.125 81.3388 64.9148 81.8615 64.4943C82.3842 64.0739 82.7706 63.5142 83.0206 62.8153C83.2763 62.1165 83.4041 61.3466 83.4041 60.5057C83.4041 59.6705 83.2763 58.9034 83.0206 58.2045C82.7706 57.5 82.3842 56.9347 81.8615 56.5085C81.3388 56.0824 80.6797 55.8693 79.8842 55.8693C79.0831 55.8693 78.4183 56.0824 77.8899 56.5085C77.3672 56.9347 76.978 57.5 76.7223 58.2045C76.4723 58.9034 76.3473 59.6705 76.3473 60.5057C76.3473 61.3466 76.4723 62.1165 76.7223 62.8153C76.978 63.5142 77.3672 64.0739 77.8899 64.4943C78.4183 64.9148 79.0831 65.125 79.8842 65.125ZM91.3707 59.2273V67H88.8224V53.9091H91.2685V56.0398H91.4304C91.7315 55.3466 92.2031 54.7898 92.8452 54.3693C93.4929 53.9489 94.3082 53.7386 95.2912 53.7386C96.1832 53.7386 96.9645 53.9261 97.6349 54.3011C98.3054 54.6705 98.8253 55.2216 99.1946 55.9545C99.5639 56.6875 99.7486 57.5937 99.7486 58.6733V67H97.2003V58.9801C97.2003 58.0312 96.9531 57.2898 96.4588 56.7557C95.9645 56.2159 95.2855 55.946 94.4219 55.946C93.831 55.946 93.3054 56.0739 92.8452 56.3295C92.3906 56.5852 92.0298 56.9602 91.7628 57.4545C91.5014 57.9432 91.3707 58.5341 91.3707 59.2273ZM112.976 57.1051L110.666 57.5142C110.57 57.2187 110.416 56.9375 110.206 56.6705C110.001 56.4034 109.723 56.1847 109.371 56.0142C109.018 55.8437 108.578 55.7585 108.05 55.7585C107.328 55.7585 106.726 55.9205 106.243 56.2443C105.76 56.5625 105.518 56.9744 105.518 57.4801C105.518 57.9176 105.68 58.2699 106.004 58.5369C106.328 58.804 106.851 59.0227 107.572 59.1932L109.652 59.6705C110.857 59.9489 111.754 60.3778 112.345 60.9574C112.936 61.5369 113.232 62.2898 113.232 63.2159C113.232 64 113.004 64.6989 112.55 65.3125C112.101 65.9205 111.473 66.3977 110.666 66.7443C109.865 67.0909 108.936 67.2642 107.879 67.2642C106.413 67.2642 105.217 66.9517 104.291 66.3267C103.365 65.696 102.797 64.8011 102.587 63.642L105.05 63.267C105.203 63.9091 105.518 64.3949 105.996 64.7244C106.473 65.0483 107.095 65.2102 107.862 65.2102C108.697 65.2102 109.365 65.0369 109.865 64.6903C110.365 64.3381 110.615 63.9091 110.615 63.4034C110.615 62.9943 110.462 62.6506 110.155 62.3722C109.854 62.0937 109.391 61.8835 108.766 61.7415L106.55 61.2557C105.328 60.9773 104.425 60.5341 103.839 59.9261C103.26 59.3182 102.97 58.5483 102.97 57.6165C102.97 56.8437 103.186 56.1676 103.618 55.5881C104.05 55.0085 104.646 54.5568 105.408 54.233C106.169 53.9034 107.041 53.7386 108.024 53.7386C109.439 53.7386 110.553 54.0455 111.365 54.6591C112.178 55.267 112.714 56.0824 112.976 57.1051ZM124.326 61.571V53.9091H126.883V67H124.377V64.733H124.241C123.94 65.4318 123.457 66.0142 122.792 66.4801C122.133 66.9403 121.312 67.1705 120.329 67.1705C119.488 67.1705 118.744 66.9858 118.096 66.6165C117.454 66.2415 116.948 65.6875 116.579 64.9545C116.215 64.2216 116.033 63.3153 116.033 62.2358V53.9091H118.582V61.929C118.582 62.821 118.829 63.5312 119.323 64.0597C119.817 64.5881 120.46 64.8523 121.249 64.8523C121.727 64.8523 122.201 64.733 122.673 64.4943C123.15 64.2557 123.545 63.8949 123.857 63.4119C124.175 62.929 124.332 62.3153 124.326 61.571ZM132.855 49.5455V67H130.307V49.5455H132.855ZM142.394 53.9091V55.9545H135.244V53.9091H142.394ZM137.161 50.7727H139.71V63.1562C139.71 63.6506 139.783 64.0227 139.931 64.2727C140.079 64.517 140.269 64.6847 140.502 64.7756C140.741 64.8608 140.999 64.9034 141.278 64.9034C141.482 64.9034 141.661 64.8892 141.815 64.8608C141.968 64.8324 142.087 64.8097 142.173 64.7926L142.633 66.8977C142.485 66.9545 142.275 67.0114 142.002 67.0682C141.729 67.1307 141.388 67.1648 140.979 67.1705C140.309 67.1818 139.684 67.0625 139.104 66.8125C138.525 66.5625 138.056 66.1761 137.698 65.6534C137.34 65.1307 137.161 64.4744 137.161 63.6847V50.7727ZM150.587 67.2642C149.359 67.2642 148.288 66.983 147.374 66.4205C146.459 65.858 145.749 65.071 145.243 64.0597C144.737 63.0483 144.484 61.8665 144.484 60.5142C144.484 59.1562 144.737 57.9687 145.243 56.9517C145.749 55.9347 146.459 55.1449 147.374 54.5824C148.288 54.0199 149.359 53.7386 150.587 53.7386C151.814 53.7386 152.885 54.0199 153.8 54.5824C154.714 55.1449 155.425 55.9347 155.93 56.9517C156.436 57.9687 156.689 59.1562 156.689 60.5142C156.689 61.8665 156.436 63.0483 155.93 64.0597C155.425 65.071 154.714 65.858 153.8 66.4205C152.885 66.983 151.814 67.2642 150.587 67.2642ZM150.595 65.125C151.391 65.125 152.05 64.9148 152.572 64.4943C153.095 64.0739 153.482 63.5142 153.732 62.8153C153.987 62.1165 154.115 61.3466 154.115 60.5057C154.115 59.6705 153.987 58.9034 153.732 58.2045C153.482 57.5 153.095 56.9347 152.572 56.5085C152.05 56.0824 151.391 55.8693 150.595 55.8693C149.794 55.8693 149.129 56.0824 148.601 56.5085C148.078 56.9347 147.689 57.5 147.433 58.2045C147.183 58.9034 147.058 59.6705 147.058 60.5057C147.058 61.3466 147.183 62.1165 147.433 62.8153C147.689 63.5142 148.078 64.0739 148.601 64.4943C149.129 64.9148 149.794 65.125 150.595 65.125ZM159.533 67V53.9091H161.996V55.9886H162.133C162.371 55.2841 162.792 54.7301 163.394 54.3267C164.002 53.9176 164.69 53.7131 165.457 53.7131C165.616 53.7131 165.803 53.7187 166.019 53.7301C166.241 53.7415 166.414 53.7557 166.539 53.7727V56.2102C166.437 56.1818 166.255 56.1506 165.994 56.1165C165.732 56.0767 165.471 56.0568 165.21 56.0568C164.607 56.0568 164.07 56.1847 163.599 56.4403C163.133 56.6903 162.763 57.0398 162.491 57.4886C162.218 57.9318 162.082 58.4375 162.082 59.0057V67H159.533ZM168.744 67V53.9091H171.293V67H168.744ZM168.983 52.1619L170.977 48.233H173.662L171.02 52.1619H168.983ZM178.531 67.2898C177.701 67.2898 176.951 67.1364 176.281 66.8295C175.61 66.517 175.079 66.0653 174.687 65.4744C174.3 64.8835 174.107 64.1591 174.107 63.3011C174.107 62.5625 174.249 61.9545 174.533 61.4773C174.817 61 175.201 60.6222 175.684 60.3438C176.167 60.0653 176.707 59.8551 177.303 59.7131C177.9 59.571 178.508 59.4631 179.127 59.3892C179.911 59.2983 180.548 59.2244 181.036 59.1676C181.525 59.1051 181.88 59.0057 182.102 58.8693C182.323 58.733 182.434 58.5114 182.434 58.2045V58.1449C182.434 57.4006 182.224 56.8239 181.803 56.4148C181.388 56.0057 180.769 55.8011 179.945 55.8011C179.087 55.8011 178.411 55.9915 177.917 56.3722C177.428 56.7472 177.09 57.1648 176.903 57.625L174.508 57.0795C174.792 56.2841 175.207 55.642 175.752 55.1534C176.303 54.6591 176.937 54.3011 177.653 54.0795C178.369 53.8523 179.121 53.7386 179.911 53.7386C180.434 53.7386 180.988 53.8011 181.573 53.9261C182.164 54.0455 182.715 54.267 183.227 54.5909C183.744 54.9148 184.167 55.3778 184.496 55.9801C184.826 56.5767 184.991 57.3523 184.991 58.3068V67H182.502V65.2102H182.4C182.235 65.5398 181.988 65.8636 181.658 66.1818C181.329 66.5 180.906 66.7642 180.388 66.9744C179.871 67.1847 179.252 67.2898 178.531 67.2898ZM179.085 65.2443C179.789 65.2443 180.391 65.1051 180.891 64.8267C181.397 64.5483 181.781 64.1847 182.042 63.7358C182.309 63.2812 182.442 62.7955 182.442 62.2784V60.5909C182.352 60.6818 182.175 60.767 181.914 60.8466C181.658 60.9205 181.366 60.9858 181.036 61.0426C180.707 61.0937 180.386 61.142 180.073 61.1875C179.761 61.2273 179.499 61.2614 179.289 61.2898C178.795 61.3523 178.343 61.4574 177.934 61.6051C177.531 61.7528 177.207 61.9659 176.962 62.2443C176.724 62.517 176.604 62.8807 176.604 63.3352C176.604 63.9659 176.837 64.4432 177.303 64.767C177.769 65.0852 178.363 65.2443 179.085 65.2443ZM200.225 72.1818C199.185 72.1818 198.29 72.0455 197.54 71.7727C196.796 71.5 196.188 71.1392 195.717 70.6903C195.245 70.2415 194.893 69.75 194.66 69.2159L196.85 68.3125C197.004 68.5625 197.208 68.8267 197.464 69.1051C197.725 69.3892 198.077 69.6307 198.521 69.8295C198.969 70.0284 199.546 70.1278 200.251 70.1278C201.217 70.1278 202.015 69.892 202.646 69.4205C203.276 68.9545 203.592 68.2102 203.592 67.1875V64.6136H203.43C203.276 64.892 203.055 65.2017 202.765 65.5426C202.481 65.8835 202.089 66.179 201.589 66.429C201.089 66.679 200.438 66.804 199.637 66.804C198.603 66.804 197.671 66.5625 196.842 66.0795C196.018 65.5909 195.364 64.8722 194.881 63.9233C194.404 62.9687 194.165 61.7955 194.165 60.4034C194.165 59.0114 194.401 57.8182 194.873 56.8239C195.35 55.8295 196.004 55.0682 196.833 54.5398C197.663 54.0057 198.603 53.7386 199.654 53.7386C200.467 53.7386 201.123 53.875 201.623 54.1477C202.123 54.4148 202.512 54.7273 202.79 55.0852C203.075 55.4432 203.293 55.7585 203.447 56.0312H203.634V53.9091H206.131V67.2898C206.131 68.4148 205.87 69.3381 205.347 70.0597C204.825 70.7813 204.117 71.3153 203.225 71.6619C202.339 72.0085 201.339 72.1818 200.225 72.1818ZM200.2 64.6903C200.933 64.6903 201.552 64.5199 202.058 64.179C202.569 63.8324 202.955 63.3381 203.217 62.696C203.484 62.0483 203.617 61.2727 203.617 60.3693C203.617 59.4886 203.487 58.7131 203.225 58.0426C202.964 57.3722 202.58 56.8494 202.075 56.4744C201.569 56.0937 200.944 55.9034 200.2 55.9034C199.433 55.9034 198.793 56.1023 198.282 56.5C197.771 56.892 197.384 57.4261 197.123 58.1023C196.867 58.7784 196.739 59.5341 196.739 60.3693C196.739 61.2273 196.87 61.9801 197.131 62.6278C197.393 63.2756 197.779 63.7812 198.29 64.1449C198.808 64.5085 199.444 64.6903 200.2 64.6903ZM209.549 67V53.9091H212.012V55.9886H212.148C212.387 55.2841 212.808 54.7301 213.41 54.3267C214.018 53.9176 214.705 53.7131 215.472 53.7131C215.631 53.7131 215.819 53.7187 216.035 53.7301C216.256 53.7415 216.43 53.7557 216.555 53.7727V56.2102C216.452 56.1818 216.271 56.1506 216.009 56.1165C215.748 56.0767 215.487 56.0568 215.225 56.0568C214.623 56.0568 214.086 56.1847 213.614 56.4403C213.148 56.6903 212.779 57.0398 212.506 57.4886C212.234 57.9318 212.097 58.4375 212.097 59.0057V67H209.549ZM222.452 67.2898C221.623 67.2898 220.873 67.1364 220.202 66.8295C219.532 66.517 219.001 66.0653 218.609 65.4744C218.222 64.8835 218.029 64.1591 218.029 63.3011C218.029 62.5625 218.171 61.9545 218.455 61.4773C218.739 61 219.123 60.6222 219.606 60.3438C220.089 60.0653 220.629 59.8551 221.225 59.7131C221.822 59.571 222.43 59.4631 223.049 59.3892C223.833 59.2983 224.469 59.2244 224.958 59.1676C225.447 59.1051 225.802 59.0057 226.023 58.8693C226.245 58.733 226.356 58.5114 226.356 58.2045V58.1449C226.356 57.4006 226.146 56.8239 225.725 56.4148C225.31 56.0057 224.691 55.8011 223.867 55.8011C223.009 55.8011 222.333 55.9915 221.839 56.3722C221.35 56.7472 221.012 57.1648 220.825 57.625L218.43 57.0795C218.714 56.2841 219.129 55.642 219.674 55.1534C220.225 54.6591 220.859 54.3011 221.575 54.0795C222.29 53.8523 223.043 53.7386 223.833 53.7386C224.356 53.7386 224.91 53.8011 225.495 53.9261C226.086 54.0455 226.637 54.267 227.148 54.5909C227.665 54.9148 228.089 55.3778 228.418 55.9801C228.748 56.5767 228.913 57.3523 228.913 58.3068V67H226.424V65.2102H226.322C226.157 65.5398 225.91 65.8636 225.58 66.1818C225.251 66.5 224.827 66.7642 224.31 66.9744C223.793 67.1847 223.174 67.2898 222.452 67.2898ZM223.006 65.2443C223.711 65.2443 224.313 65.1051 224.813 64.8267C225.319 64.5483 225.702 64.1847 225.964 63.7358C226.231 63.2812 226.364 62.7955 226.364 62.2784V60.5909C226.273 60.6818 226.097 60.767 225.836 60.8466C225.58 60.9205 225.288 60.9858 224.958 61.0426C224.629 61.0937 224.308 61.142 223.995 61.1875C223.683 61.2273 223.421 61.2614 223.211 61.2898C222.717 61.3523 222.265 61.4574 221.856 61.6051C221.452 61.7528 221.129 61.9659 220.884 62.2443C220.646 62.517 220.526 62.8807 220.526 63.3352C220.526 63.9659 220.759 64.4432 221.225 64.767C221.691 65.0852 222.285 65.2443 223.006 65.2443ZM238.418 53.9091V55.9545H231.267V53.9091H238.418ZM233.185 50.7727H235.733V63.1562C235.733 63.6506 235.807 64.0227 235.955 64.2727C236.102 64.517 236.293 64.6847 236.526 64.7756C236.764 64.8608 237.023 64.9034 237.301 64.9034C237.506 64.9034 237.685 64.8892 237.838 64.8608C237.991 64.8324 238.111 64.8097 238.196 64.7926L238.656 66.8977C238.509 66.9545 238.298 67.0114 238.026 67.0682C237.753 67.1307 237.412 67.1648 237.003 67.1705C236.332 67.1818 235.707 67.0625 235.128 66.8125C234.548 66.5625 234.08 66.1761 233.722 65.6534C233.364 65.1307 233.185 64.4744 233.185 63.6847V50.7727ZM241.237 67V53.9091H243.785V67H241.237ZM242.523 51.8892C242.08 51.8892 241.7 51.7415 241.381 51.446C241.069 51.1449 240.913 50.7869 240.913 50.3722C240.913 49.9517 241.069 49.5937 241.381 49.2983C241.7 48.9972 242.08 48.8466 242.523 48.8466C242.967 48.8466 243.344 48.9972 243.657 49.2983C243.975 49.5937 244.134 49.9517 244.134 50.3722C244.134 50.7869 243.975 51.1449 243.657 51.446C243.344 51.7415 242.967 51.8892 242.523 51.8892ZM257.023 57.1051L254.713 57.5142C254.616 57.2187 254.463 56.9375 254.253 56.6705C254.048 56.4034 253.77 56.1847 253.418 56.0142C253.065 55.8437 252.625 55.7585 252.097 55.7585C251.375 55.7585 250.773 55.9205 250.29 56.2443C249.807 56.5625 249.565 56.9744 249.565 57.4801C249.565 57.9176 249.727 58.2699 250.051 58.5369C250.375 58.804 250.898 59.0227 251.619 59.1932L253.699 59.6705C254.903 59.9489 255.801 60.3778 256.392 60.9574C256.983 61.5369 257.278 62.2898 257.278 63.2159C257.278 64 257.051 64.6989 256.597 65.3125C256.148 65.9205 255.52 66.3977 254.713 66.7443C253.912 67.0909 252.983 67.2642 251.926 67.2642C250.46 67.2642 249.264 66.9517 248.338 66.3267C247.412 65.696 246.844 64.8011 246.634 63.642L249.097 63.267C249.25 63.9091 249.565 64.3949 250.043 64.7244C250.52 65.0483 251.142 65.2102 251.909 65.2102C252.744 65.2102 253.412 65.0369 253.912 64.6903C254.412 64.3381 254.662 63.9091 254.662 63.4034C254.662 62.9943 254.509 62.6506 254.202 62.3722C253.901 62.0937 253.438 61.8835 252.812 61.7415L250.597 61.2557C249.375 60.9773 248.472 60.5341 247.886 59.9261C247.307 59.3182 247.017 58.5483 247.017 57.6165C247.017 56.8437 247.233 56.1676 247.665 55.5881C248.097 55.0085 248.693 54.5568 249.455 54.233C250.216 53.9034 251.088 53.7386 252.071 53.7386C253.486 53.7386 254.599 54.0455 255.412 54.6591C256.224 55.267 256.761 56.0824 257.023 57.1051Z" fill="black"/>
<path d="M30 1L1 13.48H324V97L338 75.88V1H30Z" stroke="white"/>
</svg>
