<svg width="696" height="696" viewBox="0 0 696 696" fill="none" xmlns="http://www.w3.org/2000/svg">
<path d="M231 239.805V458.805H271.936V319.584L342.995 372.77L452.673 289.863V239.805L342.995 325.841L231 239.805Z" fill="white"/>
<path d="M452.673 364.69L411.667 396.062V458.805H452.673V364.69Z" fill="white"/>
<path d="M282.704 389.414V341.996L343.319 387.082L439.84 314.012H502L343.319 435.276L282.704 389.414Z" fill="#E2FF69"/>
<path d="M185.448 196.525L182.997 198.561L174.048 173.364L176.461 171.36L199.589 184.778L197.138 186.814L177.867 175.354L177.716 175.479L185.448 196.525ZM180.088 188.231L189.968 180.024L191.691 182.098L181.811 190.305L180.088 188.231Z" fill="white"/>
<path d="M240.499 135.766C239.921 135.119 239.298 134.584 238.632 134.162C237.97 133.73 237.268 133.422 236.527 133.238C235.794 133.051 235.03 132.997 234.236 133.078C233.442 133.158 232.629 133.38 231.798 133.744C230.436 134.341 229.352 135.235 228.545 136.427C227.738 137.62 227.306 139.045 227.247 140.703C227.189 142.361 227.595 144.185 228.468 146.176C229.34 148.167 230.409 149.701 231.675 150.778C232.941 151.856 234.297 152.498 235.743 152.703C237.189 152.908 238.623 152.699 240.044 152.076C241.362 151.499 242.399 150.71 243.156 149.709C243.917 148.698 244.352 147.553 244.46 146.274C244.573 144.984 244.322 143.636 243.705 142.229L244.637 142.035L237.722 145.065L236.64 142.595L245.396 138.759L246.478 141.228C247.308 143.122 247.625 144.945 247.43 146.699C247.242 148.449 246.61 150.02 245.533 151.41C244.461 152.79 243.012 153.88 241.186 154.68C239.15 155.572 237.151 155.877 235.19 155.594C233.236 155.309 231.442 154.471 229.808 153.082C228.181 151.69 226.836 149.781 225.773 147.356C224.977 145.538 224.503 143.796 224.354 142.131C224.208 140.455 224.36 138.908 224.809 137.489C225.258 136.07 225.976 134.819 226.964 133.735C227.952 132.651 229.183 131.786 230.657 131.14C231.87 130.609 233.08 130.297 234.289 130.205C235.501 130.101 236.665 130.203 237.78 130.508C238.899 130.802 239.938 131.289 240.895 131.967C241.848 132.637 242.674 133.484 243.373 134.507L240.499 135.766Z" fill="white"/>
<path d="M290.122 133.764L286.69 108.899L301.696 106.828L302.065 109.499L290.07 111.155L291.229 119.556L302.448 118.008L302.816 120.679L291.598 122.227L292.764 130.677L304.954 128.995L305.322 131.666L290.122 133.764Z" fill="white"/>
<path d="M371.076 103.659L367.677 128.528L364.763 128.129L353.88 106.751L353.637 106.718L350.969 126.244L347.957 125.833L351.355 100.964L354.27 101.362L365.195 122.795L365.438 122.828L368.113 103.254L371.076 103.659Z" fill="white"/>
<path d="M436.356 127.448L433.578 126.216C433.768 125.344 433.792 124.514 433.65 123.727C433.515 122.943 433.248 122.216 432.847 121.547C432.458 120.874 431.959 120.276 431.349 119.756C430.74 119.235 430.055 118.806 429.293 118.468C427.904 117.851 426.49 117.644 425.05 117.846C423.619 118.051 422.267 118.689 420.996 119.761C419.732 120.836 418.66 122.366 417.778 124.353C416.897 126.34 416.481 128.162 416.532 129.82C416.59 131.482 417.023 132.913 417.832 134.112C418.648 135.314 419.751 136.224 421.14 136.84C421.902 137.178 422.68 137.398 423.475 137.501C424.27 137.603 425.046 137.576 425.803 137.421C426.571 137.261 427.291 136.968 427.963 136.542C428.646 136.112 429.245 135.538 429.76 134.819L432.538 136.052C431.809 137.132 430.963 138.012 429.999 138.693C429.035 139.374 427.999 139.857 426.889 140.142C425.782 140.42 424.643 140.499 423.471 140.381C422.306 140.267 421.144 139.953 419.987 139.439C418.03 138.571 416.502 137.321 415.403 135.689C414.303 134.056 413.708 132.165 413.616 130.015C413.525 127.865 414.016 125.58 415.089 123.16C416.163 120.74 417.528 118.843 419.184 117.468C420.84 116.093 422.642 115.266 424.589 114.986C426.537 114.706 428.489 115.001 430.446 115.869C431.604 116.383 432.616 117.033 433.482 117.82C434.356 118.61 435.06 119.512 435.593 120.526C436.13 121.533 436.469 122.622 436.611 123.793C436.756 124.957 436.671 126.176 436.356 127.448Z" fill="white"/>
<path d="M485.504 144.102L470.004 163.844L467.613 161.967L483.114 142.225L485.504 144.102Z" fill="white"/>
<path d="M505.909 192.067L503.959 189.547L529.45 181.473L531.37 183.954L517.162 206.605L515.211 204.085L527.33 185.221L527.209 185.066L505.909 192.067ZM514.383 186.997L522.245 197.154L520.113 198.804L512.251 188.647L514.383 186.997Z" fill="white"/>
<path d="M588.732 298.002L563.978 302.157L563.491 299.256L580.662 282.505L580.622 282.263L561.186 285.525L560.683 282.527L585.437 278.373L585.924 281.274L568.712 298.081L568.753 298.323L588.237 295.053L588.732 298.002Z" fill="white"/>
<path d="M570.335 345.298L595.293 347.968L593.682 363.03L591.001 362.743L592.289 350.703L583.856 349.801L582.651 361.061L579.97 360.774L581.175 349.514L572.693 348.607L571.384 360.842L568.703 360.555L570.335 345.298Z" fill="white"/>
<path d="M586.603 413.643L574.522 415.869L574.451 416.052L581.821 425.88L580.518 429.213L571.702 417.294L557.14 420.077L558.443 416.744L570.341 414.446L570.413 414.263L563.225 404.507L564.528 401.173L573.272 413.276L587.906 410.31L586.603 413.643Z" fill="white"/>
<path d="M552.017 486.574L550.177 488.993L536.949 478.932C535.583 477.894 534.609 476.644 534.025 475.184C533.444 473.736 533.286 472.195 533.554 470.561C533.828 468.932 534.561 467.333 535.753 465.766C536.945 464.199 538.289 463.065 539.786 462.366C541.289 461.672 542.819 461.409 544.375 461.576C545.933 461.755 547.395 462.363 548.761 463.402L561.989 473.463L560.149 475.882L547.116 465.97C546.14 465.228 545.109 464.782 544.021 464.633C542.941 464.488 541.881 464.647 540.841 465.109C539.804 465.582 538.862 466.375 538.016 467.487C537.17 468.599 536.658 469.719 536.479 470.845C536.306 471.976 536.436 473.04 536.869 474.037C537.304 475.045 538.009 475.92 538.984 476.661L552.017 486.574Z" fill="white"/>
<path d="M503.175 531.862C504.037 532.768 505.093 533.181 506.341 533.103C507.59 533.025 508.822 532.53 510.038 531.618C510.927 530.951 511.597 530.224 512.048 529.437C512.493 528.654 512.713 527.871 512.708 527.089C512.697 526.311 512.451 525.601 511.97 524.961C511.569 524.425 511.095 524.059 510.551 523.865C510.006 523.682 509.434 523.615 508.838 523.664C508.246 523.719 507.667 523.832 507.1 524.002C506.538 524.178 506.034 524.357 505.588 524.538L503.136 525.519C502.51 525.773 501.786 526.02 500.964 526.259C500.136 526.502 499.271 526.635 498.369 526.658C497.465 526.692 496.578 526.53 495.707 526.172C494.836 525.814 494.047 525.164 493.341 524.223C492.528 523.138 492.077 521.944 491.989 520.642C491.894 519.344 492.196 518.03 492.894 516.7C493.585 515.375 494.702 514.134 496.245 512.977C497.683 511.899 499.103 511.197 500.503 510.872C501.897 510.552 503.206 510.582 504.43 510.961C505.647 511.345 506.707 512.057 507.609 513.096L505.099 514.979C504.465 514.269 503.739 513.833 502.922 513.669C502.103 513.517 501.26 513.578 500.392 513.851C499.523 514.135 498.69 514.576 497.892 515.174C496.964 515.87 496.243 516.645 495.73 517.5C495.221 518.361 494.955 519.224 494.93 520.091C494.911 520.963 495.175 521.766 495.724 522.498C496.224 523.165 496.817 523.567 497.504 523.706C498.19 523.845 498.935 523.818 499.739 523.623C500.543 523.429 501.372 523.165 502.225 522.832L505.225 521.685C507.132 520.96 508.857 520.672 510.4 520.823C511.942 520.974 513.221 521.725 514.236 523.079C515.079 524.203 515.51 525.411 515.529 526.704C515.547 528.008 515.214 529.279 514.529 530.518C513.842 531.768 512.858 532.873 511.577 533.834C510.283 534.805 508.958 535.435 507.603 535.726C506.254 536.023 504.986 535.994 503.799 535.637C502.606 535.286 501.614 534.616 500.821 533.627L503.175 531.862Z" fill="white"/>
<path d="M415.995 587.337L412.405 587.859L400.965 568.469L400.674 568.511L395.232 590.357L391.642 590.879L388.029 566.04L390.843 565.631L393.587 584.503L393.83 584.467L398.847 564.467L401.564 564.072L412.071 581.814L412.314 581.779L409.569 562.907L412.383 562.498L415.995 587.337Z" fill="white"/>
<path d="M344.533 571.375L347.687 571.829L334.985 595.358L331.879 594.911L326.337 568.753L329.491 569.207L333.901 591.19L334.095 591.218L344.533 571.375ZM341.97 580.912L329.257 579.079L329.642 576.411L342.355 578.243L341.97 580.912Z" fill="white"/>
<path d="M284.345 562.198L274.165 585.141L266.412 581.701C264.62 580.906 263.285 579.947 262.406 578.824C261.525 577.709 261.043 576.498 260.961 575.192C260.879 573.886 261.137 572.558 261.737 571.206C262.337 569.854 263.145 568.778 264.162 567.978C265.179 567.177 266.391 566.732 267.799 566.642C269.203 566.559 270.794 566.912 272.572 567.7L278.845 570.484L277.731 572.994L271.548 570.25C270.323 569.706 269.257 569.448 268.352 569.475C267.438 569.499 266.668 569.765 266.04 570.273C265.401 570.785 264.878 571.5 264.471 572.419C264.063 573.338 263.879 574.217 263.917 575.056C263.956 575.896 264.27 576.669 264.858 577.378C265.443 578.093 266.356 578.726 267.596 579.276L272.48 581.444L281.567 560.965L284.345 562.198ZM268.973 567.712L267.9 554.901L271.126 556.332L272.109 569.104L268.973 567.712Z" fill="white"/>
<path d="M231.086 538.477L215.208 557.917L212.854 555.994L220.731 546.35L220.503 546.164L203.894 548.675L200.818 546.163L216.145 544.06L216.696 526.724L219.544 529.05L218.922 543.606L223.584 542.857L228.732 536.555L231.086 538.477Z" fill="white"/>
<path d="M183.983 499.471L163.506 513.986L154.746 501.628L156.945 500.069L163.948 509.947L170.867 505.043L164.318 495.804L166.518 494.245L173.067 503.483L180.026 498.55L172.91 488.512L175.11 486.952L183.983 499.471Z" fill="white"/>
<path d="M129.129 459.303L126.593 460.218L120.206 442.509L122.743 441.594L125.42 449.019L146.496 441.419L147.527 444.278L126.451 451.878L129.129 459.303Z" fill="white"/>
<path d="M105.431 394.253L130.384 391.547L130.712 394.568L105.758 397.275L105.431 394.253Z" fill="white"/>
<path d="M102.831 325.021L127.688 328.51L127.279 331.423L105.861 342.228L105.827 342.471L125.344 345.21L124.921 348.22L100.064 344.731L100.473 341.818L121.946 330.971L121.98 330.728L102.416 327.982L102.831 325.021Z" fill="white"/>
<path d="M125.471 262.527C124.608 262.432 123.788 262.451 123.01 262.583C122.229 262.705 121.501 262.945 120.828 263.304C120.157 263.655 119.554 264.126 119.017 264.717C118.48 265.308 118.025 266.017 117.651 266.843C117.038 268.198 116.83 269.588 117.027 271.014C117.225 272.44 117.856 273.788 118.922 275.06C119.987 276.332 121.51 277.416 123.49 278.313C125.469 279.209 127.29 279.635 128.953 279.589C130.615 279.543 132.052 279.113 133.264 278.299C134.475 277.484 135.402 276.37 136.042 274.955C136.635 273.645 136.878 272.365 136.772 271.115C136.661 269.854 136.219 268.712 135.444 267.689C134.666 266.655 133.577 265.821 132.178 265.187L132.74 264.419L129.626 271.297L127.17 270.185L131.113 261.476L133.569 262.588C135.453 263.441 136.908 264.584 137.936 266.019C138.967 267.445 139.548 269.036 139.677 270.789C139.803 272.533 139.455 274.312 138.632 276.128C137.715 278.153 136.434 279.716 134.787 280.818C133.143 281.912 131.249 282.49 129.105 282.55C126.964 282.604 124.688 282.084 122.276 280.992C120.468 280.173 118.951 279.195 117.726 278.057C116.497 276.909 115.575 275.657 114.96 274.302C114.344 272.947 114.041 271.536 114.051 270.07C114.06 268.603 114.397 267.137 115.061 265.67C115.607 264.464 116.298 263.423 117.135 262.546C117.967 261.658 118.9 260.955 119.933 260.436C120.962 259.907 122.059 259.574 123.224 259.438C124.381 259.298 125.562 259.375 126.765 259.669L125.471 262.527Z" fill="white"/>
<circle cx="348" cy="347" r="277" stroke="white" stroke-width="4"/>
</svg>
