<svg width="178" height="178" viewBox="0 0 178 178" fill="none" xmlns="http://www.w3.org/2000/svg">
<path d="M88.518 176.036C40.1831 176.036 1 136.853 1 88.518C1 40.1831 40.1831 1 88.518 1C136.853 1 176.036 40.1831 176.036 88.518C176.036 136.853 136.853 176.036 88.518 176.036Z" fill="#0A0A0A" stroke="white" stroke-width="2"/>
<path d="M53.8766 55.8739V121.658H66.0544V79.8381L87.1931 95.8141L119.82 70.9102V55.8739L87.1931 81.7176L53.8766 55.8739Z" fill="white"/>
<path d="M119.82 93.387L107.622 102.811V121.658H119.82V93.387Z" fill="white"/>
<path d="M69.2576 100.814V86.5703L87.2895 100.113L116.003 78.1643H134.494L87.2895 114.59L69.2576 100.814Z" fill="white"/>
<path d="M40.4379 43.4691L39.7077 44.0757L37.0415 36.5692L37.7605 35.9719L44.6508 39.9694L43.9205 40.576L38.1794 37.1619L38.1345 37.1992L40.4379 43.4691ZM38.841 40.9982L41.7844 38.5531L42.2977 39.171L39.3543 41.6161L38.841 40.9982Z" fill="white"/>
<path d="M56.839 25.3682C56.6668 25.1752 56.4814 25.0159 56.2829 24.8903C56.0856 24.7615 55.8766 24.6697 55.6559 24.6149C55.4375 24.5591 55.2099 24.5432 54.9733 24.5672C54.7366 24.5911 54.4946 24.6573 54.2471 24.7658C53.8413 24.9436 53.5182 25.21 53.2779 25.5651C53.0375 25.9203 52.9086 26.3448 52.8912 26.8388C52.8737 27.3328 52.9949 27.8763 53.2548 28.4693C53.5146 29.0624 53.8331 29.5195 54.2103 29.8405C54.5875 30.1616 54.9915 30.3527 55.4222 30.4138C55.8529 30.4748 56.2801 30.4126 56.7037 30.227C57.0961 30.0551 57.405 29.82 57.6305 29.5219C57.8573 29.2206 57.9869 28.8795 58.0193 28.4985C58.0529 28.1144 57.9779 27.7127 57.7943 27.2936L58.0719 27.2357L56.0118 28.1383L55.6894 27.4026L58.298 26.2597L58.6204 26.9954C58.8675 27.5595 58.962 28.1027 58.9039 28.6252C58.848 29.1466 58.6597 29.6145 58.3389 30.0287C58.0194 30.4398 57.5877 30.7645 57.0437 31.0029C56.4372 31.2686 55.8418 31.3594 55.2575 31.2752C54.6754 31.1901 54.1409 30.9406 53.654 30.5268C53.1693 30.112 52.7687 29.5434 52.4521 28.821C52.2148 28.2792 52.0738 27.7603 52.0292 27.2643C51.9859 26.7651 52.031 26.3041 52.1647 25.8814C52.2985 25.4588 52.5125 25.086 52.8068 24.763C53.1012 24.44 53.4679 24.1823 53.9071 23.9899C54.2683 23.8316 54.6289 23.7388 54.9889 23.7112C55.3502 23.6805 55.6969 23.7106 56.0291 23.8016C56.3625 23.8894 56.6718 24.0342 56.957 24.2362C57.2411 24.4359 57.4872 24.6882 57.6952 24.993L56.839 25.3682Z" fill="white"/>
<path d="M71.6214 24.7716L70.599 17.3641L75.0695 16.7471L75.1794 17.5428L71.6058 18.036L71.9513 20.5389L75.2933 20.0777L75.4032 20.8734L72.0611 21.3347L72.4085 23.8521L76.04 23.3509L76.1498 24.1466L71.6214 24.7716Z" fill="white"/>
<path d="M95.7392 15.8028L94.7267 23.2117L93.8585 23.0931L90.6162 16.7242L90.5438 16.7143L89.7489 22.5315L88.8517 22.4089L89.8642 15L90.7324 15.1186L93.9872 21.5039L94.0596 21.5138L94.8565 15.6822L95.7392 15.8028Z" fill="white"/>
<path d="M115.187 22.8901L114.359 22.5229C114.416 22.2631 114.423 22.0159 114.381 21.7814C114.341 21.5479 114.261 21.3314 114.142 21.132C114.026 20.9314 113.877 20.7535 113.695 20.5984C113.514 20.4433 113.31 20.3154 113.083 20.2147C112.669 20.0311 112.248 19.9693 111.819 20.0293C111.392 20.0904 110.99 20.2805 110.611 20.5998C110.235 20.9201 109.915 21.3762 109.652 21.968C109.39 22.5598 109.266 23.1028 109.281 23.5968C109.298 24.0919 109.428 24.518 109.668 24.8752C109.912 25.2335 110.24 25.5044 110.654 25.688C110.881 25.7887 111.113 25.8544 111.35 25.8849C111.586 25.9154 111.818 25.9075 112.043 25.8611C112.272 25.8135 112.486 25.7263 112.687 25.5994C112.89 25.4712 113.068 25.3001 113.222 25.086L114.05 25.4533C113.832 25.7749 113.58 26.0372 113.293 26.24C113.006 26.4428 112.697 26.5867 112.367 26.6717C112.037 26.7544 111.697 26.7782 111.348 26.7431C111.001 26.7089 110.655 26.6153 110.31 26.4623C109.727 26.2036 109.272 25.8312 108.945 25.345C108.617 24.8588 108.44 24.2954 108.412 23.6548C108.385 23.0142 108.531 22.3334 108.851 21.6126C109.171 20.8917 109.578 20.3265 110.071 19.9169C110.565 19.5073 111.101 19.2609 111.682 19.1775C112.262 19.0941 112.843 19.1818 113.426 19.4404C113.771 19.5935 114.073 19.7872 114.331 20.0216C114.591 20.257 114.801 20.5257 114.96 20.8279C115.12 21.1279 115.221 21.4523 115.263 21.8013C115.306 22.148 115.281 22.511 115.187 22.8901Z" fill="white"/>
<path d="M129.83 27.8515L125.212 33.733L124.5 33.1738L129.118 27.2923L129.83 27.8515Z" fill="white"/>
<path d="M135.908 42.1411L135.327 41.3904L142.921 38.9848L143.493 39.7239L139.26 46.4722L138.679 45.7215L142.289 40.1015L142.253 40.0553L135.908 42.1411ZM138.432 40.6304L140.774 43.6564L140.139 44.1481L137.797 41.1221L138.432 40.6304Z" fill="white"/>
<path d="M160.582 73.7005L153.207 74.9383L153.062 74.0741L158.178 69.0837L158.166 69.0117L152.376 69.9835L152.226 69.0905L159.6 67.8527L159.745 68.7169L154.618 73.7242L154.63 73.7962L160.434 72.8219L160.582 73.7005Z" fill="white"/>
<path d="M155.101 87.7906L162.536 88.586L162.056 93.0733L161.257 92.9879L161.641 89.4009L159.129 89.1321L158.77 92.4867L157.971 92.4013L158.33 89.0467L155.803 88.7764L155.413 92.4214L154.615 92.336L155.101 87.7906Z" fill="white"/>
<path d="M159.948 108.152L156.349 108.815L156.328 108.869L158.524 111.797L158.136 112.79L155.509 109.239L151.171 110.068L151.559 109.075L155.104 108.391L155.125 108.336L152.984 105.43L153.372 104.437L155.977 108.042L160.336 107.159L159.948 108.152Z" fill="white"/>
<path d="M149.644 129.879L149.095 130.6L145.155 127.602C144.748 127.293 144.457 126.921 144.284 126.486C144.11 126.054 144.063 125.595 144.143 125.108C144.225 124.623 144.443 124.147 144.798 123.68C145.153 123.213 145.554 122.875 146 122.667C146.448 122.46 146.903 122.382 147.367 122.432C147.831 122.485 148.267 122.666 148.673 122.976L152.614 125.973L152.066 126.694L148.183 123.741C147.893 123.52 147.586 123.387 147.262 123.342C146.94 123.299 146.624 123.346 146.314 123.484C146.005 123.625 145.725 123.861 145.473 124.193C145.221 124.524 145.068 124.857 145.015 125.193C144.963 125.53 145.002 125.847 145.131 126.144C145.26 126.444 145.47 126.705 145.761 126.926L149.644 129.879Z" fill="white"/>
<path d="M135.093 143.371C135.35 143.641 135.665 143.764 136.037 143.741C136.409 143.717 136.776 143.57 137.138 143.298C137.403 143.1 137.603 142.883 137.737 142.648C137.869 142.415 137.935 142.182 137.933 141.949C137.93 141.717 137.857 141.506 137.714 141.315C137.594 141.155 137.453 141.046 137.291 140.988C137.128 140.934 136.958 140.914 136.781 140.928C136.604 140.945 136.432 140.979 136.263 141.029C136.095 141.082 135.945 141.135 135.812 141.189L135.082 141.481C134.895 141.557 134.68 141.63 134.435 141.701C134.188 141.774 133.93 141.814 133.662 141.82C133.392 141.831 133.128 141.782 132.869 141.676C132.609 141.569 132.374 141.376 132.164 141.095C131.921 140.772 131.787 140.416 131.761 140.028C131.733 139.642 131.823 139.25 132.031 138.854C132.237 138.459 132.569 138.089 133.029 137.745C133.457 137.424 133.88 137.215 134.297 137.118C134.713 137.022 135.103 137.031 135.467 137.144C135.83 137.259 136.146 137.471 136.414 137.78L135.666 138.341C135.478 138.13 135.262 138 135.018 137.951C134.774 137.906 134.523 137.924 134.264 138.005C134.005 138.09 133.757 138.221 133.52 138.399C133.243 138.607 133.028 138.838 132.875 139.092C132.724 139.349 132.645 139.606 132.637 139.864C132.631 140.124 132.71 140.363 132.874 140.581C133.023 140.78 133.199 140.9 133.404 140.941C133.608 140.983 133.83 140.974 134.07 140.916C134.309 140.858 134.556 140.78 134.81 140.681L135.704 140.339C136.272 140.123 136.786 140.037 137.246 140.082C137.705 140.127 138.086 140.351 138.389 140.754C138.64 141.089 138.768 141.449 138.774 141.834C138.779 142.223 138.68 142.601 138.476 142.97C138.271 143.343 137.978 143.672 137.597 143.958C137.211 144.247 136.816 144.435 136.413 144.522C136.011 144.61 135.633 144.602 135.279 144.495C134.924 144.391 134.628 144.191 134.392 143.897L135.093 143.371Z" fill="white"/>
<path d="M109.12 159.898L108.051 160.053L104.643 154.276L104.556 154.289L102.935 160.797L101.865 160.953L100.789 153.553L101.627 153.431L102.445 159.053L102.517 159.043L104.012 153.084L104.821 152.967L107.951 158.252L108.024 158.242L107.206 152.62L108.044 152.498L109.12 159.898Z" fill="white"/>
<path d="M87.8322 155.142L88.7718 155.278L84.9875 162.287L84.0624 162.154L82.4114 154.361L83.351 154.496L84.6648 161.046L84.7226 161.054L87.8322 155.142ZM87.0686 157.983L83.2812 157.438L83.3958 156.643L87.1832 157.188L87.0686 157.983Z" fill="white"/>
<path d="M69.9012 152.408L66.8681 159.243L64.5586 158.219C64.0247 157.982 63.6268 157.696 63.3651 157.361C63.1025 157.029 62.9589 156.669 62.9345 156.28C62.91 155.891 62.9872 155.495 63.1659 155.092C63.3446 154.689 63.5854 154.369 63.8882 154.13C64.1911 153.892 64.5522 153.759 64.9716 153.732C65.39 153.707 65.864 153.813 66.3935 154.048L68.2625 154.877L67.9307 155.625L66.0885 154.807C65.7236 154.645 65.4062 154.568 65.1363 154.576C64.8642 154.583 64.6347 154.663 64.4477 154.814C64.2575 154.967 64.1016 155.18 63.9802 155.453C63.8587 155.727 63.8038 155.989 63.8153 156.239C63.8268 156.489 63.9202 156.72 64.0956 156.931C64.27 157.144 64.5418 157.332 64.9112 157.496L66.3663 158.142L69.0735 152.041L69.9012 152.408ZM65.3214 154.051L65.0019 150.234L65.963 150.661L66.2559 154.466L65.3214 154.051Z" fill="white"/>
<path d="M54.0349 145.342L49.3045 151.133L48.6032 150.56L50.9499 147.687L50.8821 147.632L45.9338 148.38L45.0175 147.631L49.5837 147.005L49.7479 141.84L50.5962 142.533L50.4108 146.87L51.7999 146.646L53.3336 144.769L54.0349 145.342Z" fill="white"/>
<path d="M39.9999 133.721L33.8994 138.045L31.2895 134.364L31.9449 133.899L34.031 136.842L36.0923 135.381L34.1413 132.629L34.7966 132.164L36.7477 134.916L38.8209 133.447L36.7009 130.456L37.3563 129.992L39.9999 133.721Z" fill="white"/>
<path d="M23.6604 121.755L22.9048 122.027L21.0023 116.751L21.7579 116.479L22.5556 118.691L28.8343 116.427L29.1414 117.278L22.8628 119.543L23.6604 121.755Z" fill="white"/>
<path d="M16.6001 102.375L24.0342 101.569L24.1318 102.469L16.6977 103.275L16.6001 102.375Z" fill="white"/>
<path d="M15.8243 81.7497L23.2294 82.7893L23.1076 83.6571L16.727 86.8761L16.7168 86.9484L22.531 87.7646L22.4051 88.6613L15 87.6218L15.1218 86.754L21.519 83.5225L21.5291 83.4502L15.7005 82.632L15.8243 81.7497Z" fill="white"/>
<path d="M22.5699 63.132C22.3128 63.1038 22.0684 63.1094 21.8368 63.1488C21.604 63.185 21.3872 63.2565 21.1865 63.3634C20.9868 63.468 20.807 63.6084 20.6471 63.7845C20.4872 63.9606 20.3516 64.1717 20.2401 64.4178C20.0574 64.8214 19.9954 65.2356 20.0543 65.6604C20.1131 66.0851 20.3012 66.487 20.6187 66.8658C20.9361 67.2447 21.3897 67.5677 21.9796 67.8348C22.5694 68.1018 23.1119 68.2286 23.607 68.215C24.1022 68.2014 24.5303 68.0732 24.8913 67.8306C25.2524 67.5879 25.5283 67.2559 25.7191 66.8346C25.8958 66.4443 25.9683 66.063 25.9365 65.6905C25.9035 65.3149 25.7717 64.9746 25.541 64.6698C25.3091 64.3617 24.9847 64.1132 24.5678 63.9245L24.7355 63.6958L23.8077 65.7447L23.076 65.4133L24.2507 62.819L24.9825 63.1503C25.5435 63.4043 25.9771 63.745 26.2833 64.1722C26.5906 64.5972 26.7635 65.071 26.8021 65.5935C26.8395 66.1128 26.7357 66.643 26.4907 67.184C26.2176 67.7872 25.8358 68.2529 25.3451 68.5811C24.8554 68.9072 24.2912 69.0792 23.6524 69.0973C23.0147 69.1131 22.3365 68.9584 21.6181 68.633C21.0793 68.3891 20.6274 68.0976 20.2625 67.7587C19.8963 67.4165 19.6216 67.0436 19.4383 66.64C19.255 66.2364 19.1648 65.816 19.1676 65.3791C19.1704 64.9421 19.2707 64.5052 19.4685 64.0684C19.6311 63.7092 19.8371 63.399 20.0863 63.1377C20.3343 62.8733 20.6122 62.6637 20.92 62.5092C21.2266 62.3514 21.5534 62.2522 21.9004 62.2116C22.2453 62.1701 22.5969 62.193 22.9554 62.2805L22.5699 63.132Z" fill="white"/>
</svg>
