<svg width="154" height="150" viewBox="0 0 154 150" fill="none" xmlns="http://www.w3.org/2000/svg">
<path d="M42.5156 44.0185V107.295H54.7584V67.0694L76.01 82.4366L108.811 58.4818V44.0185L76.01 68.8773L42.5156 44.0185Z" fill="white"/>
<path d="M108.811 80.102L96.5476 89.1664V107.295H108.811V80.102Z" fill="white"/>
<path d="M57.9787 87.2456V73.545L76.1069 86.5718L104.974 65.4594H123.564L76.1069 100.497L57.9787 87.2456Z" fill="white"/>
<path d="M52.3278 9.42389L49.5167 10.7136L49.6797 12.272L48.5301 12.7994L47.7693 5.14357L49.0444 4.55855L54.6159 10.0073L53.4567 10.5391L52.3278 9.42389ZM51.5956 8.69019L49.0346 6.15022L49.4027 9.69625L51.5956 8.69019Z" fill="white"/>
<path d="M69.213 2.24328C68.9606 1.91963 68.6504 1.69723 68.2822 1.57608C67.9128 1.44808 67.5071 1.42122 67.0652 1.49548C66.5812 1.57681 66.1686 1.75526 65.8273 2.03083C65.486 2.3064 65.2411 2.65728 65.0927 3.08347C64.9512 3.50849 64.9259 3.97734 65.0167 4.49004C65.1074 5.00274 65.2931 5.43966 65.5738 5.80078C65.8602 6.15389 66.2116 6.40458 66.6279 6.55284C67.0442 6.70111 67.4944 6.73457 67.9784 6.65324C68.6308 6.54361 69.1289 6.27688 69.4728 5.85304C69.8168 5.4292 69.9804 4.90542 69.9639 4.28169L67.2177 4.74317L67.0525 3.81006L71.0824 3.13287L71.244 4.04548C71.2649 4.61216 71.1516 5.15562 70.9042 5.67587C70.6638 6.19494 70.3054 6.63882 69.8289 7.0075C69.3583 7.36817 68.8038 7.60213 68.1654 7.7094C67.478 7.82492 66.8229 7.7766 66.2003 7.56446C65.5764 7.34549 65.0471 6.98743 64.6124 6.49029C64.1846 5.99198 63.909 5.39419 63.7856 4.69691C63.6621 3.99964 63.7162 3.34645 63.9479 2.73733C64.1865 2.12704 64.5628 1.62034 65.0765 1.21724C65.596 0.806128 66.196 0.543402 66.8764 0.429064C67.655 0.298223 68.3793 0.370106 69.0491 0.644714C69.7247 0.911306 70.2599 1.36342 70.6545 2.00105L69.213 2.24328Z" fill="white"/>
<path d="M83.1751 1.05532L83.0092 3.17181L85.5644 3.36223L85.4888 4.3271L82.9336 4.13669L82.7604 6.34656L85.635 6.56077L85.5593 7.52565L81.4711 7.22098L82.0371 0L86.1253 0.304663L86.0497 1.26954L83.1751 1.05532Z" fill="white"/>
<path d="M101.511 11.1217L100.351 10.7609L98.5475 4.53089L96.862 9.6752L95.7024 9.31436L97.9627 2.41564L99.1223 2.77647L100.929 8.99653L102.611 3.86214L103.771 4.22297L101.511 11.1217Z" fill="white"/>
<path d="M114.604 13.1713C115.002 12.5799 115.5 12.1388 116.096 11.8481C116.698 11.5613 117.328 11.4416 117.986 11.4891C118.653 11.5347 119.276 11.7421 119.853 12.1115C120.513 12.5341 120.992 13.0687 121.289 13.715C121.596 14.3594 121.67 15.0457 121.511 15.774L120.288 14.9915C120.342 14.5698 120.28 14.1893 120.099 13.85C119.919 13.5107 119.642 13.2211 119.267 12.9812C118.856 12.7184 118.43 12.5741 117.987 12.5482C117.545 12.5224 117.118 12.6185 116.707 12.8368C116.302 13.0588 115.949 13.3931 115.648 13.8395C115.347 14.286 115.173 14.7345 115.125 15.185C115.082 15.6393 115.16 16.0621 115.356 16.4532C115.556 16.8386 115.861 17.1626 116.272 17.4254C116.647 17.6653 117.03 17.7983 117.421 17.8245C117.812 17.8508 118.195 17.7558 118.571 17.5398L119.794 18.3223C119.171 18.7536 118.495 18.9601 117.767 18.9419C117.044 18.9276 116.352 18.709 115.692 18.2864C115.109 17.9132 114.664 17.4419 114.358 16.8726C114.056 16.2975 113.92 15.6837 113.951 15.0313C113.988 14.3827 114.205 13.7627 114.604 13.1713Z" fill="white"/>
<path d="M132.554 22.5009L127.271 27.5791L126.417 26.7347L131.699 21.6564L132.554 22.5009Z" fill="white"/>
<path d="M137.536 37.9465L135.826 35.418L134.267 35.7965L133.567 34.7626L141.236 32.9416L142.011 34.0885L137.269 40.2365L136.564 39.1938L137.536 37.9465ZM138.177 37.136L140.393 34.3051L136.844 35.1637L138.177 37.136Z" fill="white"/>
<path d="M154 66.5913L146.678 67.7669L146.48 66.5965L151.495 65.7913L146.112 64.4199L145.975 63.6088L150.619 60.6168L145.605 61.4219L145.407 60.2515L152.729 59.0759L152.942 60.3388L147.624 63.7657L153.788 65.3387L154 66.5913Z" fill="white"/>
<path d="M146.222 83.9925C146.314 83.3257 146.559 82.7314 146.954 82.2096C147.356 81.6956 147.866 81.3114 148.483 81.0568C149.106 80.8101 149.778 80.7342 150.497 80.8292C151.217 80.9241 151.84 81.1708 152.366 81.5693C152.892 81.9747 153.275 82.4767 153.515 83.0754C153.761 83.6819 153.838 84.3186 153.745 84.9853C153.651 85.659 153.404 86.2528 153.002 86.7668C152.606 87.2886 152.1 87.6733 151.484 87.921C150.868 88.1686 150.2 88.245 149.48 88.15C148.761 88.0551 148.134 87.8079 147.601 87.4085C147.074 87.01 146.688 86.5075 146.442 85.901C146.202 85.3023 146.128 84.6661 146.222 83.9925ZM147.269 84.1307C147.203 84.605 147.254 85.0422 147.421 85.4423C147.595 85.8432 147.873 86.1739 148.253 86.4341C148.64 86.7021 149.105 86.8719 149.648 86.9436C150.191 87.0153 150.682 86.9716 151.121 86.8125C151.558 86.6603 151.912 86.413 152.183 86.0707C152.453 85.7283 152.621 85.32 152.687 84.8457C152.753 84.3714 152.702 83.9342 152.535 83.5341C152.368 83.1341 152.095 82.8005 151.715 82.5334C151.335 82.2732 150.873 82.1072 150.33 82.0356C149.786 81.9639 149.292 82.0037 148.848 82.155C148.409 82.3141 148.051 82.5643 147.774 82.9057C147.503 83.2481 147.335 83.6564 147.269 84.1307Z" fill="white"/>
<path d="M145.764 109.599L139.006 106.611L139.509 105.531L144.138 107.577L140.444 103.522L140.793 102.774L146.361 102.802L141.732 100.755L142.235 99.6752L148.994 102.663L148.451 103.829L142.075 103.797L146.303 108.443L145.764 109.599Z" fill="white"/>
<path d="M136.461 121.552L134.781 120.202L133.15 122.128L132.384 121.512L134.015 119.586L132.26 118.175L130.426 120.342L129.66 119.727L132.269 116.645L138.002 121.253L135.393 124.335L134.627 123.719L136.461 121.552Z" fill="white"/>
<path d="M116.695 130.97L117.668 130.257L123.925 132.431L120.596 128.114L121.569 127.401L126.034 133.191L125.06 133.904L118.81 131.738L122.132 136.047L121.159 136.76L116.695 130.97Z" fill="white"/>
<path d="M104.935 145.108L104.546 144.218L106.364 143.465L103.851 137.7L104.971 137.236L107.485 143.002L109.313 142.245L109.701 143.136L104.935 145.108Z" fill="white"/>
<path d="M91.2145 148.867L90.4625 144.316C90.3731 143.775 90.1617 143.39 89.8283 143.162C89.4878 142.934 89.0576 142.861 88.5375 142.942C88.0104 143.025 87.6254 143.226 87.3826 143.545C87.1327 143.865 87.0524 144.296 87.1418 144.837L87.8938 149.388L86.6921 149.577L85.9435 145.046C85.8473 144.464 85.8958 143.95 86.0891 143.506C86.2823 143.061 86.5804 142.705 86.9833 142.438C87.3862 142.171 87.8512 141.996 88.3783 141.913C88.9054 141.831 89.4032 141.855 89.8717 141.985C90.3333 142.116 90.7239 142.364 91.0437 142.729C91.3634 143.093 91.5714 143.566 91.6676 144.148L92.4162 148.679L91.2145 148.867Z" fill="white"/>
<path d="M63.9624 149.06L64.8775 141.884L66.0854 142.03L65.4587 146.945L68.3318 142.302L69.1689 142.404L70.7992 147.592L71.4259 142.677L72.6338 142.824L71.7188 150L70.4155 149.842L68.5476 143.901L65.2552 149.217L63.9624 149.06Z" fill="white"/>
<path d="M32.6456 136.42L36.6261 130.317L37.6534 130.954L34.9272 135.133L39.564 132.137L40.2759 132.578L39.4693 137.946L42.1955 133.767L43.2228 134.403L39.2424 140.506L38.1339 139.819L39.0563 133.672L33.7451 137.101L32.6456 136.42Z" fill="white"/>
<path d="M22.6084 119.573L24.6514 121.854L26.1448 121.275L26.9803 122.208L19.6326 125.017L18.7059 123.982L22.5574 117.269L23.3999 118.209L22.6084 119.573ZM22.0849 120.46L20.2795 123.555L23.6785 122.24L22.0849 120.46Z" fill="white"/>
<path d="M14.3331 104.386L12.4518 107.175L12.8701 107.983L15.5205 106.681L16.0686 107.74L9.44238 110.996L8.28859 108.766C8.03219 108.27 7.90484 107.808 7.90654 107.38C7.90503 106.946 8.01038 106.572 8.22258 106.258C8.43158 105.937 8.7204 105.687 9.08905 105.506C9.52127 105.293 9.97944 105.224 10.4636 105.297C10.9382 105.366 11.3704 105.624 11.7603 106.07L13.6793 103.123L14.3331 104.386ZM12.0025 108.41L11.3967 107.239C11.1916 106.842 10.9361 106.595 10.6301 106.497C10.3209 106.392 9.99475 106.424 9.65153 106.593C9.3083 106.761 9.09262 106.992 9.0045 107.284C8.91002 107.579 8.96694 107.927 9.17526 108.33L9.781 109.501L12.0025 108.41Z" fill="white"/>
<path d="M8.90921 88.9167L6.32041 92.3721L9.55587 91.6439L9.82992 92.7997L2.59956 94.4271L2.32551 93.2713L5.62339 92.529L1.67645 90.5339L1.33269 89.0841L5.67906 91.3311L8.55103 87.406L8.90921 88.9167Z" fill="white"/>
<path d="M0.994786 75.8813L3.17301 75.8802L3.17143 73.3829L4.16444 73.3825L4.16602 75.8797L6.44034 75.8786L6.43857 73.0692L7.43158 73.0687L7.4341 77.0644L0.00252243 77.068L0 73.0723L0.993012 73.0718L0.994786 75.8813Z" fill="white"/>
<path d="M2.3134 56.5415L3.28367 56.7476L2.86316 58.6284L9.1438 59.9622L8.88467 61.1212L2.60403 59.7873L2.18125 61.6783L1.21098 61.4723L2.3134 56.5415Z" fill="white"/>
<path d="M6.13306 45.5416L12.9886 48.3109L12.5225 49.4066L5.66697 46.6374L6.13306 45.5416Z" fill="white"/>
<path d="M21.0077 34.4791L20.3282 35.4632L13.6857 35.4095L18.2838 38.4242L17.6044 39.4083L11.438 35.3655L12.1175 34.3814L18.7512 34.4293L14.1618 31.4204L14.8413 30.4363L21.0077 34.4791Z" fill="white"/>
<path d="M29.9737 18.0285C29.5873 17.8755 29.204 17.8383 28.8239 17.917C28.4392 17.9905 28.0762 18.1689 27.7349 18.4524C27.3612 18.7629 27.0996 19.1215 26.9502 19.5281C26.8009 19.9347 26.7738 20.3583 26.8691 20.7987C26.9699 21.2346 27.1934 21.6505 27.5398 22.0465C27.8862 22.4424 28.2745 22.726 28.7049 22.8972C29.1361 23.0586 29.5695 23.0997 30.0052 23.0204C30.4409 22.9411 30.8456 22.7462 31.2194 22.4357C31.7232 22.0172 32.0121 21.5402 32.0862 21.0047C32.1602 20.4692 32.0269 19.9373 31.6863 19.4089L29.5655 21.1705L28.9351 20.4499L32.0473 17.8649L32.6638 18.5697C32.9783 19.0468 33.1653 19.5706 33.2247 20.1411C33.2895 20.7071 33.2135 21.267 32.9966 21.8209C32.7804 22.3651 32.4259 22.8419 31.9329 23.2513C31.402 23.6923 30.8133 23.9762 30.1667 24.1031C29.5155 24.2248 28.8728 24.1797 28.2387 23.9681C27.61 23.7519 27.0601 23.3746 26.5891 22.8361C26.118 22.2976 25.8228 21.7088 25.7033 21.0697C25.5892 20.4261 25.6477 19.8033 25.8787 19.2013C26.1104 18.5894 26.489 18.0653 27.0145 17.6288C27.6158 17.1294 28.2764 16.8314 28.9963 16.7348C29.7169 16.6284 30.4138 16.7514 31.0869 17.1039L29.9737 18.0285Z" fill="white"/>
</svg>
