<svg width="394" height="395" viewBox="0 0 394 395" fill="none" xmlns="http://www.w3.org/2000/svg">
<path d="M7 389L33.8435 290.911C17.2828 262.204 8.57383 229.635 8.58427 196.279C8.6277 91.9108 93.5049 7 197.792 7C248.408 7.02287 295.914 26.736 331.632 62.5146C367.358 98.2929 387.021 145.85 387 196.427C386.957 300.798 302.074 385.717 197.8 385.717C197.792 385.717 197.805 385.717 197.8 385.717H197.716C166.051 385.707 134.937 377.752 107.303 362.68L7 389Z" fill="url(#paint0_linear_354_184)"/>
<path fill-rule="evenodd" clip-rule="evenodd" d="M148.594 113.595C144.927 105.422 141.066 105.258 137.577 105.115C134.723 104.993 131.456 105 128.194 105C124.929 105 119.625 106.23 115.139 111.141C110.65 116.052 98 127.924 98 152.07C98 176.219 115.547 199.552 117.992 202.829C120.441 206.101 151.864 257.236 201.629 276.908C242.989 293.257 251.405 290.005 260.383 289.187C269.36 288.369 289.35 277.317 293.43 265.856C297.511 254.398 297.511 244.576 296.287 242.523C295.063 240.478 291.798 239.251 286.901 236.797C282.005 234.342 257.934 222.468 253.446 220.831C248.957 219.195 245.693 218.377 242.428 223.291C239.164 228.199 229.786 239.251 226.929 242.523C224.073 245.803 221.216 246.212 216.32 243.758C211.423 241.296 195.654 236.119 176.947 219.399C162.392 206.392 152.565 190.327 149.709 185.414C146.852 180.505 149.403 177.847 151.859 175.4C154.057 173.201 156.756 169.671 159.204 166.805C161.647 163.939 162.463 161.894 164.095 158.622C165.728 155.344 164.912 152.478 163.687 150.024C162.463 147.57 152.948 123.299 148.594 113.595Z" fill="white"/>
<path d="M336.594 57.4018C299.553 20.4074 250.3 0.0231594 197.825 0C89.6899 0 1.69033 87.801 1.64686 195.721C1.63411 230.219 10.6652 263.892 27.8309 293.576L0 395L103.996 367.783C132.649 383.379 164.91 391.598 197.74 391.611H197.824H197.825C305.942 391.611 393.954 303.794 394 195.879C394.018 143.577 373.63 94.3989 336.594 57.4018ZM197.825 358.554H197.761C168.498 358.538 139.801 350.697 114.771 335.873L108.814 332.349L47.1007 348.498L63.5771 288.466L59.6961 282.312C43.373 256.408 34.7556 226.472 34.7684 195.734C34.804 106.035 107.946 33.0599 197.886 33.0599C241.441 33.0779 282.375 50.0218 313.163 80.7704C343.948 111.519 360.889 152.394 360.876 195.867C360.838 285.569 287.693 358.554 197.825 358.554Z" fill="white"/>
<defs>
<linearGradient id="paint0_linear_354_184" x1="133.504" y1="347.116" x2="315.7" y2="78.636" gradientUnits="userSpaceOnUse">
<stop/>
<stop offset="0.505152" stop-color="#69A9FF"/>
<stop offset="0.88" stop-color="#D5FF5C"/>
</linearGradient>
</defs>
</svg>
